<svg width="12" height="7" viewBox="0 0 12 7" fill="none" xmlns="http://www.w3.org/2000/svg">
<path d="M0 3.49336C0 3.62596 0.0526785 3.75314 0.146447 3.84691C0.240215 3.94068 0.367392 3.99336 0.5 3.99336H10.293L8.147 6.13936C8.05592 6.23366 8.00552 6.35996 8.00666 6.49106C8.0078 6.62215 8.06039 6.74756 8.15309 6.84027C8.24579 6.93297 8.3712 6.98555 8.5023 6.98669C8.6334 6.98783 8.7597 6.93743 8.854 6.84636L11.854 3.84636C11.9003 3.80036 11.937 3.74567 11.962 3.68543C11.9871 3.62519 12 3.5606 12 3.49536V3.49336C12 3.42836 11.987 3.36336 11.961 3.30236C11.9361 3.24174 11.8994 3.18667 11.853 3.14036L8.853 0.140356C8.7587 0.0492768 8.6324 -0.00112031 8.5013 1.89013e-05C8.3702 0.00115811 8.2448 0.0537425 8.15209 0.146447C8.05939 0.239151 8.0068 0.364557 8.00566 0.495655C8.00452 0.626754 8.05492 0.753055 8.146 0.847356L10.293 2.99336H0.5C0.367392 2.99336 0.240215 3.04603 0.146447 3.1398C0.0526785 3.23357 0 3.36075 0 3.49336Z" fill="black"/>
</svg>
