<svg width="12" height="12" viewBox="0 0 12 12" fill="none" xmlns="http://www.w3.org/2000/svg">
<path d="M6 0C4.81331 0 3.65328 0.351894 2.66658 1.01118C1.67989 1.67047 0.910851 2.60754 0.456725 3.7039C0.00259971 4.80025 -0.11622 6.00666 0.115291 7.17054C0.346802 8.33443 0.918247 9.40352 1.75736 10.2426C2.59648 11.0818 3.66557 11.6532 4.82946 11.8847C5.99335 12.1162 7.19974 11.9974 8.2961 11.5433C9.39246 11.0891 10.3295 10.3201 10.9888 9.33342C11.6481 8.34672 12 7.18669 12 6C11.9982 4.40926 11.3654 2.88421 10.2406 1.75939C9.11579 0.63457 7.59074 0.00183854 6 0ZM8.17248 7.51983C8.21541 7.56267 8.24947 7.61354 8.27272 7.66956C8.29597 7.72557 8.30796 7.78561 8.30799 7.84625C8.30802 7.9069 8.2961 7.96696 8.27291 8.02299C8.24972 8.07903 8.21571 8.12994 8.17282 8.17282C8.12994 8.2157 8.07903 8.24971 8.02299 8.27291C7.96696 8.2961 7.9069 8.30802 7.84626 8.30799C7.78561 8.30796 7.72557 8.29597 7.66956 8.27272C7.61355 8.24947 7.56267 8.2154 7.51983 8.17247L6 6.65264L4.48017 8.17247C4.39359 8.25887 4.27626 8.30736 4.15395 8.30729C4.03164 8.30723 3.91436 8.25861 3.82787 8.17213C3.74139 8.08564 3.69277 7.96836 3.69271 7.84605C3.69264 7.72374 3.74113 7.60641 3.82753 7.51983L5.34736 6L3.82753 4.48017C3.74113 4.39359 3.69264 4.27626 3.69271 4.15395C3.69277 4.03164 3.74139 3.91436 3.82787 3.82787C3.91436 3.74138 4.03164 3.69277 4.15395 3.6927C4.27626 3.69264 4.39359 3.74113 4.48017 3.82752L6 5.34735L7.51983 3.82752C7.60641 3.74113 7.72374 3.69264 7.84605 3.6927C7.96836 3.69277 8.08564 3.74138 8.17213 3.82787C8.25862 3.91436 8.30723 4.03164 8.3073 4.15395C8.30736 4.27626 8.25887 4.39359 8.17248 4.48017L6.65265 6L8.17248 7.51983Z" fill="#D50000"/>
</svg>
